<svg data-v-423bf9ae="" xmlns="http://www.w3.org/2000/svg" viewBox="0 0 311.2296896140518 60" class="font"><!----><!----><!----><g data-v-423bf9ae="" id="44091e67-d492-4476-aae3-2967b6f128c2" fill="white" transform="matrix(4.640371120175647,0,0,4.640371120175647,-3.387470060546093,-18.143851239754447)"><path d="M7.45 15.33L5.95 15.33L5.95 14.42C7.98 14.03 9.24 12.33 9.24 9.46C9.24 6.16 7.56 4.41 4.98 4.41C2.42 4.41 0.73 6.16 0.73 9.46C0.73 12.42 2.09 14.14 4.21 14.46L4.21 15.05C4.21 16.18 4.80 16.84 6.09 16.84L7.45 16.84ZM4.98 12.88C3.58 12.88 2.69 11.89 2.69 10.22L2.69 8.71C2.69 7.04 3.58 6.05 4.98 6.05C6.38 6.05 7.28 7.04 7.28 8.71L7.28 10.22C7.28 11.89 6.38 12.88 4.98 12.88ZM15.37 14.35L17.16 14.35L17.16 7.04L15.37 7.04L15.37 11.87C15.37 12.66 14.66 13.03 13.94 13.03C13.09 13.03 12.71 12.49 12.71 11.48L12.71 7.04L10.92 7.04L10.92 11.66C10.92 13.48 11.76 14.52 13.26 14.52C14.46 14.52 15.05 13.86 15.30 13.13L15.37 13.13ZM20.13 5.98C20.86 5.98 21.18 5.60 21.18 5.08L21.18 4.80C21.18 4.28 20.86 3.91 20.13 3.91C19.39 3.91 19.08 4.28 19.08 4.80L19.08 5.08C19.08 5.60 19.39 5.98 20.13 5.98ZM19.24 14.35L21.03 14.35L21.03 7.04L19.24 7.04ZM25.86 14.35L25.86 12.92L24.89 12.92L24.89 3.99L23.10 3.99L23.10 12.59C23.10 13.71 23.67 14.35 24.89 14.35ZM29.88 14.35L29.88 12.92L28.91 12.92L28.91 3.99L27.12 3.99L27.12 12.59C27.12 13.71 27.69 14.35 28.91 14.35ZM37.65 15.33L36.15 15.33L36.15 14.42C38.18 14.03 39.44 12.33 39.44 9.46C39.44 6.16 37.76 4.41 35.18 4.41C32.62 4.41 30.93 6.16 30.93 9.46C30.93 12.42 32.28 14.14 34.41 14.46L34.41 15.05C34.41 16.18 35 16.84 36.29 16.84L37.65 16.84ZM35.18 12.88C33.78 12.88 32.89 11.89 32.89 10.22L32.89 8.71C32.89 7.04 33.78 6.05 35.18 6.05C36.58 6.05 37.48 7.04 37.48 8.71L37.48 10.22C37.48 11.89 36.58 12.88 35.18 12.88ZM45.57 14.35L47.36 14.35L47.36 7.04L45.57 7.04L45.57 11.87C45.57 12.66 44.86 13.03 44.14 13.03C43.29 13.03 42.91 12.49 42.91 11.48L42.91 7.04L41.12 7.04L41.12 11.66C41.12 13.48 41.96 14.52 43.46 14.52C44.66 14.52 45.25 13.86 45.50 13.13L45.57 13.13ZM52.39 14.52C53.75 14.52 54.81 14 55.41 13.17L54.45 12.10C54.00 12.67 53.47 13.09 52.58 13.09C51.41 13.09 50.81 12.38 50.81 11.33L50.81 11.14L55.66 11.14L55.66 10.56C55.66 8.55 54.61 6.87 52.33 6.87C50.19 6.87 48.94 8.37 48.94 10.68C48.94 13.02 50.23 14.52 52.39 14.52ZM52.36 8.22C53.28 8.22 53.80 8.90 53.80 9.91L53.80 10.04L50.81 10.04L50.81 9.93C50.81 8.92 51.42 8.22 52.36 8.22ZM59.64 14.52C61.46 14.52 62.65 13.54 62.65 12.12C62.65 10.91 61.88 10.19 60.28 9.97L59.54 9.87C58.86 9.76 58.59 9.53 58.59 9.04C58.59 8.60 58.93 8.29 59.70 8.29C60.41 8.29 61.03 8.62 61.45 9.07L62.50 8.02C61.80 7.29 61.07 6.87 59.64 6.87C57.97 6.87 56.87 7.77 56.87 9.18C56.87 10.51 57.74 11.20 59.30 11.40L60.03 11.49C60.68 11.58 60.93 11.84 60.93 12.26C60.93 12.78 60.56 13.10 59.71 13.10C58.88 13.10 58.24 12.73 57.71 12.11L56.62 13.17C57.34 14.01 58.25 14.52 59.64 14.52ZM66.40 14.35L67.69 14.35L67.69 12.92L66.30 12.92L66.30 8.47L67.80 8.47L67.80 7.04L66.30 7.04L66.30 5.04L64.69 5.04L64.69 6.29C64.69 6.79 64.53 7.04 63.99 7.04L63.43 7.04L63.43 8.47L64.51 8.47L64.51 12.49C64.51 13.68 65.17 14.35 66.40 14.35Z"></path></g><!----><!----></svg>